<?xml version="1.0" encoding="utf-8"?>
<svg version="1.0" width="537.000000pt" height="152.000000pt" viewBox="0 0 537.000000 152.000000" preserveAspectRatio="xMidYMid meet" xmlns="http://www.w3.org/2000/svg">
  <g transform="matrix(0.104244, 0, 0, -0.123287, -18.028894, 168.823532)" fill="#000000" stroke="none" style="">
    <path d="M756 1338 c-8 -13 -49 -95 -91 -183 -42 -88 -78 -161 -79 -163 -2 -1 -86 -15 -189 -30 -180 -28 -217 -39 -217 -68 0 -8 62 -80 138 -160 75 -81 137 -154 136 -163 0 -9 -13 -96 -29 -194 -30 -184 -29 -208 8 -215 9 -2 93 38 187 88 l170 92 67 -36 c37 -20 68 -34 71 -32 6 7 -45 80 -79 113 -19 17 -58 47 -87 67 l-53 35 -56 -31 -56 -32 7 35 c4 19 10 63 13 99 7 80 -11 122 -81 190 -49 48 -55 60 -29 60 9 0 45 5 81 11 83 15 124 50 167 144 l32 70 35 -70 c57 -112 86 -133 211 -151 43 -6 50 -4 65 17 9 13 35 47 59 75 l42 52 -42 7 c-23 4 -70 11 -103 17 l-62 10 -83 175 c-93 196 -119 224 -153 171z" style="fill: rgb(10, 76, 134);"/>
    <path d="M2522 1347 c-6 -7 -48 -89 -92 -182 -45 -93 -83 -171 -84 -173 -2 -2 -87 -16 -189 -31 -182 -27 -217 -38 -217 -69 0 -8 63 -79 140 -157 l140 -141 -32 -197 c-34 -204 -33 -228 5 -235 9 -2 93 38 186 88 l170 91 70 -36 c39 -19 71 -31 71 -27 0 13 -53 83 -86 114 -16 14 -53 42 -82 62 l-53 35 -56 -31 -56 -32 7 34 c30 151 22 193 -54 274 -33 35 -60 66 -60 70 0 3 8 6 17 6 9 0 45 5 81 11 83 15 129 54 168 144 16 36 31 65 34 65 3 0 18 -29 34 -65 39 -90 85 -129 168 -144 89 -15 93 -15 113 17 10 15 35 48 57 73 l38 47 -62 10 c-35 6 -81 13 -104 17 l-41 6 -89 182 c-69 141 -94 183 -110 185 -11 2 -26 -3 -32 -11z" style="fill: rgb(10, 76, 134);"/>
    <path d="M4364 1341 c-9 -10 -50 -90 -93 -179 -42 -88 -79 -164 -82 -167 -4 -3 -91 -19 -195 -35 -194 -29 -220 -39 -207 -78 3 -10 67 -79 141 -154 l135 -137 -32 -195 c-34 -203 -33 -236 6 -236 10 0 93 41 187 91 l169 92 68 -37 c38 -21 69 -33 69 -28 0 29 -74 112 -141 158 l-74 52 -58 -29 c-57 -29 -57 -29 -52 -7 14 64 22 144 15 172 -10 46 -23 66 -79 121 -28 27 -51 52 -51 56 0 4 29 11 65 14 108 12 143 36 194 134 l44 85 38 -76 c49 -98 82 -124 178 -139 40 -6 76 -7 80 -2 4 4 31 38 59 74 l52 67 -62 10 c-35 6 -81 13 -103 17 l-40 6 -79 167 c-99 210 -114 228 -152 183z" style="fill: rgb(10, 76, 134);"/>
    <path d="M1535 1054 c-95 -49 -146 -88 -236 -181 -84 -86 -135 -160 -186 -270 l-33 -72 -44 43 c-99 100 -192 140 -228 99 -42 -49 -31 -77 52 -133 67 -45 125 -109 173 -190 29 -48 38 -55 68 -58 46 -4 62 15 83 102 56 230 216 438 411 537 99 49 118 75 93 126 -20 42 -66 41 -153 -3z" style="fill: rgb(83, 181, 93);"/>
    <path d="M3294 1052 c-98 -52 -160 -100 -240 -184 -81 -86 -133 -162 -180 -263 l-34 -74 -44 43 c-99 100 -192 140 -228 99 -41 -48 -31 -77 45 -127 70 -47 128 -108 175 -186 35 -58 43 -65 73 -68 19 -1 40 2 48 7 7 4 24 49 37 99 60 233 215 434 410 533 98 49 117 75 92 126 -20 43 -67 42 -154 -5z" style="fill: rgb(83, 181, 93);"/>
    <path d="M5133 1051 c-173 -92 -310 -234 -402 -418 -23 -44 -41 -87 -41 -94 0 -6 -24 11 -54 39 -113 107 -198 139 -231 88 -28 -43 -16 -77 39 -113 74 -48 151 -129 186 -195 34 -63 61 -78 109 -62 22 8 29 21 48 99 61 238 211 431 418 539 91 47 111 76 84 124 -23 42 -69 40 -156 -7z" style="fill: rgb(83, 181, 93);"/>
  </g>
</svg>