<?xml version="1.0" encoding="utf-8"?>
<svg version="1.0" width="368.000000pt" height="334.000000pt" viewBox="0 0 368.000000 334.000000" preserveAspectRatio="xMidYMid meet" xmlns="http://www.w3.org/2000/svg">
  <g transform="matrix(0.1, 0, 0, -0.1, -0.748879, 338.118835)" fill="#000000" stroke="none">
    <path d="M1092 2427 c-531 -531 -802 -809 -802 -822 0 -25 228 -255 252 -255 9 0 40 12 69 27 77 40 178 44 251 11 108 -50 168 -144 168 -264 0 -59 -5 -81 -30 -130 -16 -32 -30 -66 -30 -74 0 -23 232 -250 255 -250 28 0 1625 1598 1625 1625 0 26 -228 255 -253 255 -10 0 -39 -12 -65 -27 -42 -25 -57 -28 -137 -28 -80 0 -95 3 -137 27 -137 81 -187 249 -115 388 15 28 27 59 27 68 0 24 -230 252 -255 252 -13 0 -289 -269 -823 -803z m729 373 c11 0 575 -565 596 -597 9 -13 13 -33 9 -45 -3 -13 -239 -257 -525 -542 -466 -466 -523 -519 -551 -519 -28 0 -65 33 -327 294 -162 162 -298 303 -303 314 -4 11 -3 31 2 45 10 28 986 1011 1033 1041 17 10 36 17 43 14 8 -3 18 -5 23 -5z" style="fill: rgb(250, 180, 0);"/>
    <path d="M 1744.045 2783.91 C 1728.045 2775.91 1480.323 2516.466 1218.323 2254.466 C 772.323 1808.466 711.367 1748.255 711.367 1715.255 C 711.367 1684.255 783.789 1631.3 1021.789 1395.3 C 1162.789 1254.3 1223.135 1196.211 1233.135 1192.211 C 1357.49 985.061 1497.378 1202.175 1510.287 1218.933 C 1549.287 1239.933 2388.188 2099.812 2396.188 2125.812 C 2429.143 2152.79 2423.399 2192.511 2416.399 2204.511 C 2399.399 2237.511 1850.767 2790.888 1821.767 2803.888 C 1792.767 2816.888 1781.045 2802.91 1744.045 2783.91 Z" style="paint-order: fill; stroke-width: 10px; fill: rgb(255, 255, 255); stroke: rgb(0, 0, 0);"/>
    <path d="M2655 2010 l-100 -100 188 0 c186 0 188 0 212 -25 l25 -24 0 -409 0 -409 -23 -21 -23 -22 -645 0 -644 0 -100 -100 -100 -100 942 0 c921 0 943 0 953 19 5 11 10 87 10 174 0 171 -2 178 -69 191 -49 9 -124 60 -156 105 -30 44 -55 119 -55 166 0 113 86 228 196 261 32 10 65 24 72 33 8 10 12 61 12 171 0 139 -2 159 -18 173 -16 15 -52 17 -298 17 l-279 0 -100 -100z" style="fill: rgb(250, 180, 0);"/>
    <path d="M 2095 1450 L 1687.511 1005.067 L 2301.744 1007.067 L 2924.466 1002.578 L 2965.933 1019.089 C 2983.933 1041.089 2973.7 1123 2973.7 1454 C 2973.7 1795 2989.557 1846.641 2972.422 1869.189 C 2933.7 1920.144 2944.422 1913.654 2719.467 1909.91 L 2554.91 1909.91 L 2095 1450 Z" style="stroke-width: 10px; fill: rgb(255, 255, 255); stroke: rgb(11, 11, 11);"/>
    <text style="fill: rgb(255, 254, 254); font-family: &quot;Bauhaus 93&quot;; font-size: 890px; font-style: italic; letter-spacing: -20px; paint-order: stroke; stroke: rgb(0, 0, 0); stroke-width: 140px; word-spacing: -2.7px; white-space: pre;" transform="matrix(1, 0, 0, -1, 0, 0)" x="252.442" y="-589.894">eTickets</text>
  </g>
</svg>