<?xml version="1.0" encoding="utf-8"?>
<svg version="1.0" width="368.000000pt" height="334.000000pt" viewBox="0 0 368.000000 334.000000" preserveAspectRatio="xMidYMid meet" xmlns="http://www.w3.org/2000/svg">
  <g transform="translate(0.000000,334.000000) scale(0.100000,-0.100000)" fill="#000000" stroke="none">
    <path d="M1092 2427 c-531 -531 -802 -809 -802 -822 0 -25 228 -255 252 -255 9 0 40 12 69 27 77 40 178 44 251 11 108 -50 168 -144 168 -264 0 -59 -5 -81 -30 -130 -16 -32 -30 -66 -30 -74 0 -23 232 -250 255 -250 28 0 1625 1598 1625 1625 0 26 -228 255 -253 255 -10 0 -39 -12 -65 -27 -42 -25 -57 -28 -137 -28 -80 0 -95 3 -137 27 -137 81 -187 249 -115 388 15 28 27 59 27 68 0 24 -230 252 -255 252 -13 0 -289 -269 -823 -803z m729 373 c11 0 575 -565 596 -597 9 -13 13 -33 9 -45 -3 -13 -239 -257 -525 -542 -466 -466 -523 -519 -551 -519 -28 0 -65 33 -327 294 -162 162 -298 303 -303 314 -4 11 -3 31 2 45 10 28 986 1011 1033 1041 17 10 36 17 43 14 8 -3 18 -5 23 -5z" style="fill: rgb(163, 162, 162);"/>
    <path d="M1774 2724 c-16 -8 -245 -230 -507 -492 -446 -446 -477 -480 -477 -513 0 -31 20 -54 258 -290 141 -141 265 -259 275 -263 10 -3 30 1 45 8 39 21 979 967 987 993 3 12 1 33 -6 45 -17 33 -487 504 -516 517 -29 13 -22 14 -59 -5z" style="fill: rgb(215, 212, 212);"/>
    <path d="M2655 2010 l-100 -100 188 0 c186 0 188 0 212 -25 l25 -24 0 -409 0 -409 -23 -21 -23 -22 -645 0 -644 0 -100 -100 -100 -100 942 0 c921 0 943 0 953 19 5 11 10 87 10 174 0 171 -2 178 -69 191 -49 9 -124 60 -156 105 -30 44 -55 119 -55 166 0 113 86 228 196 261 32 10 65 24 72 33 8 10 12 61 12 171 0 139 -2 159 -18 173 -16 15 -52 17 -298 17 l-279 0 -100 -100z" style="fill: rgb(163, 162, 162);"/>
    <path d="M2095 1450 l-400 -400 603 2 604 3 19 24 c18 22 19 44 19 375 0 341 -1 353 -20 374 -20 21 -28 22 -223 22 l-202 0 -400 -400z" style="fill: rgb(215, 212, 212);"/>
    <text style="fill: rgb(78, 78, 78); font-family: Arial, sans-serif; font-size: 890px; font-style: italic; letter-spacing: -20px; word-spacing: -2.7px; white-space: pre;" transform="matrix(1, 0, 0, -1, 0, 0)" x="252.442" y="-589.894">eTickets</text>
  </g>
</svg>