<?xml version="1.0" encoding="utf-8"?>
<svg version="1.0" width="535.000000pt" height="491.000000pt" viewBox="0 0 535.000000 491.000000" preserveAspectRatio="xMidYMid meet" xmlns="http://www.w3.org/2000/svg">
  <g transform="translate(0.000000,491.000000) scale(0.100000,-0.100000)" fill="#000000" stroke="none">
    <path d="M 1858.539 4895.667 C 1853.423 4893.401 1827.839 4888.869 1802.257 4884.338 C 1694.81 4868.475 1682.531 4818.624 1705.043 4499.122 C 1728.579 4177.355 1743.928 4112.775 1808.397 4064.056 C 1886.168 4004.008 2163.485 4005.142 2231.022 4065.19 C 2293.444 4120.706 2304.701 4167.158 2327.213 4459.467 C 2338.47 4611.288 2344.609 4749.511 2340.517 4780.103 C 2331.307 4846.949 2296.515 4876.406 2208.51 4891.135 C 2149.158 4900.199 1881.052 4903.597 1858.539 4895.667 Z" style="fill: rgb(250, 180, 0);"/>
    <path d="M 3110.045 4890.002 C 3050.691 4878.672 3001.574 4841.284 2993.387 4802.762 C 2978.038 4734.784 3011.807 4220.409 3036.367 4153.562 C 3056.832 4096.913 3111.067 4043.662 3160.186 4032.333 C 3208.283 4021.003 3411.919 4021.003 3461.039 4032.333 C 3527.553 4047.062 3580.766 4119.572 3597.139 4215.877 C 3610.441 4288.387 3633.977 4606.756 3633.977 4703.059 C 3633.977 4819.757 3624.768 4842.417 3565.416 4873.007 C 3533.694 4890.002 3494.808 4894.534 3342.335 4896.8 C 3241.028 4899.065 3136.649 4895.667 3110.045 4890.002 Z" style="fill: rgb(250, 180, 0);"/>
    <path d="M 1476.845 4253.265 C 1447.169 4220.409 1473.775 4059.524 1512.661 4043.662 C 1520.847 4040.264 1525.964 4021.003 1525.964 3994.945 C 1525.964 3972.285 1531.081 3936.029 1537.22 3914.502 C 1549.5 3873.715 1613.969 3791.007 1633.411 3791.007 C 1639.552 3791.007 1663.087 3780.811 1684.577 3768.347 C 1792.024 3707.166 1832.955 3696.969 1986.453 3691.305 C 2153.252 3685.64 2219.767 3698.102 2331.307 3757.018 C 2366.099 3776.278 2398.845 3791.007 2403.962 3791.007 C 2410.102 3791.007 2429.545 3808.002 2448.988 3829.528 C 2480.709 3864.652 2518.572 3962.088 2518.572 4010.806 C 2518.572 4022.136 2530.852 4048.194 2546.201 4070.855 C 2569.738 4103.71 2573.831 4122.971 2574.854 4178.487 C 2574.854 4226.073 2570.761 4247.6 2559.505 4255.531 C 2536.993 4271.393 2422.381 4269.126 2408.055 4253.265 C 2387.589 4230.605 2392.706 4126.371 2416.242 4081.051 C 2428.521 4059.524 2443.871 4039.13 2452.057 4035.732 C 2485.827 4022.136 2451.035 3885.045 2407.031 3858.986 C 2388.613 3848.789 2385.542 3849.923 2385.542 3872.582 C 2385.542 3915.636 2357.913 3949.624 2322.097 3949.624 C 2304.701 3949.624 2233.069 3940.561 2162.461 3930.365 C 2051.943 3914.502 2020.221 3913.369 1920.96 3925.833 C 1668.203 3958.688 1658.995 3957.556 1658.995 3891.843 C 1658.995 3874.848 1654.901 3857.853 1650.807 3854.454 C 1638.527 3846.523 1598.619 3889.576 1586.339 3923.566 C 1574.06 3958.688 1574.06 4040.264 1586.339 4040.264 C 1591.456 4040.264 1605.782 4057.258 1617.038 4078.785 C 1644.668 4127.503 1647.737 4248.732 1622.156 4260.063 C 1593.502 4272.525 1489.124 4266.861 1476.845 4253.265 Z" style="fill: rgb(250, 180, 0);"/>
    <path d="M 2766.213 4253.265 C 2745.746 4230.605 2750.863 4126.371 2775.422 4081.051 C 2787.703 4058.391 2801.005 4040.264 2806.122 4040.264 C 2811.238 4040.264 2815.332 4025.535 2815.332 4008.54 C 2815.332 3949.624 2843.983 3868.05 2877.753 3829.528 C 2896.174 3808.002 2916.638 3791.007 2922.778 3791.007 C 2928.919 3791.007 2951.431 3780.811 2972.921 3768.347 C 3082.415 3707.166 3138.696 3694.703 3311.637 3694.703 C 3456.945 3694.703 3483.552 3698.102 3546.997 3721.895 C 3586.907 3736.624 3625.791 3754.751 3633.977 3762.682 C 3642.164 3770.614 3662.63 3779.677 3677.981 3784.209 C 3740.402 3801.204 3797.707 3892.976 3797.707 3977.949 C 3797.707 4014.205 3802.823 4031.2 3813.056 4036.865 C 3862.175 4057.258 3890.828 4230.605 3849.896 4255.531 C 3817.15 4274.792 3719.935 4269.126 3700.493 4247.6 C 3671.84 4215.877 3686.166 4116.174 3727.099 4060.658 C 3755.751 4021.003 3758.821 4010.806 3752.682 3968.885 C 3745.518 3922.433 3703.563 3847.656 3684.12 3847.656 C 3679.003 3847.656 3674.909 3862.385 3674.909 3880.513 C 3674.909 3898.64 3667.747 3922.433 3657.513 3932.63 C 3639.095 3953.024 3628.861 3953.024 3412.944 3926.965 C 3302.426 3913.369 3274.798 3913.369 3162.233 3930.365 C 3092.649 3941.694 3021.016 3949.624 3002.596 3949.624 C 2965.758 3949.624 2948.362 3925.833 2948.362 3877.114 C 2948.362 3861.252 2944.269 3847.656 2940.175 3847.656 C 2921.755 3847.656 2887.986 3900.907 2871.613 3953.024 L 2855.241 4007.407 L 2886.963 4048.194 C 2925.849 4096.913 2938.129 4129.77 2938.129 4187.552 C 2938.129 4240.802 2916.638 4266.861 2873.66 4266.861 C 2849.1 4266.861 2837.844 4260.063 2830.681 4241.935 C 2819.424 4212.477 2787.703 4202.28 2770.305 4221.541 C 2762.119 4230.605 2764.166 4238.536 2778.493 4250.999 C 2789.749 4260.063 2793.842 4266.861 2788.726 4266.861 C 2782.586 4266.861 2773.375 4261.196 2766.213 4253.265 Z" style="fill: rgb(250, 180, 0);"/>
    <path d="M 11.469 3490.767 L 11.469 3417.122 L 833.185 3417.122 C 1284.463 3415.99 2478.664 3414.857 3485.597 3413.723 L 5317.319 3411.457 L 5317.319 3485.102 L 5317.319 3558.745 L 2664.905 3562.144 L 11.469 3564.41 L 11.469 3490.767 Z" style=""/>
    <path d="M 1858.539 3120.872 C 1789.977 3110.675 1732.673 3086.882 1712.205 3060.824 C 1705.043 3050.627 1696.856 3017.77 1692.763 2987.179 C 1685.599 2915.802 1717.323 2488.666 1735.742 2407.091 C 1751.091 2339.112 1788.953 2286.995 1841.143 2262.069 C 1890.261 2239.41 2049.897 2230.346 2136.879 2247.341 C 2199.301 2258.67 2216.697 2266.602 2246.372 2299.458 C 2265.815 2320.985 2288.328 2362.905 2297.537 2392.363 C 2315.958 2456.943 2348.704 2877.28 2342.564 2971.318 C 2337.446 3052.892 2321.074 3076.685 2253.535 3102.744 C 2198.277 3123.137 1954.73 3134.468 1858.539 3120.872 Z" style="fill: rgb(250, 180, 0);"/>
    <path d="M 1473.268 2481.318 C 1466.105 2468.855 1459.964 2440.531 1459.964 2419.004 C 1459.964 2373.684 1493.734 2290.977 1516.246 2280.78 C 1525.457 2277.381 1531.595 2259.253 1531.595 2233.194 C 1531.595 2161.817 1551.038 2111.965 1594.018 2068.911 C 1616.531 2045.118 1647.229 2021.327 1662.58 2014.528 C 1677.929 2007.73 1710.675 1991.869 1735.234 1980.538 C 1837.566 1930.688 2025.853 1912.56 2179.35 1938.618 C 2253.029 1951.082 2390.151 2009.996 2443.363 2051.917 C 2477.133 2077.975 2524.205 2182.21 2524.205 2230.929 C 2524.205 2252.455 2536.484 2285.311 2554.903 2313.636 C 2579.463 2351.025 2585.603 2371.419 2585.603 2419.004 C 2585.603 2497.18 2574.347 2506.244 2481.226 2501.712 L 2406.524 2498.313 L 2403.454 2430.333 C 2400.385 2356.69 2411.64 2319.301 2450.526 2281.913 C 2472.015 2261.519 2475.086 2250.189 2468.945 2217.333 C 2461.783 2174.279 2423.92 2106.3 2404.477 2098.369 C 2396.291 2096.104 2391.175 2105.167 2391.175 2121.029 C 2391.175 2135.758 2385.035 2157.284 2376.848 2169.747 C 2362.523 2191.274 2370.707 2191.274 2095.439 2168.614 C 2047.344 2164.082 1947.059 2167.481 1864.171 2175.412 C 1688.162 2193.54 1667.697 2189.008 1658.486 2134.624 C 1655.417 2113.098 1647.229 2097.236 1641.09 2099.502 C 1617.553 2107.433 1590.947 2162.949 1585.832 2211.668 C 1580.715 2256.987 1583.784 2266.051 1612.437 2297.774 C 1644.16 2331.764 1645.183 2336.296 1642.113 2415.605 L 1639.043 2498.313 L 1562.296 2501.712 C 1494.757 2503.977 1484.525 2501.712 1473.268 2481.318 Z" style="fill: rgb(250, 180, 0);"/>
    <path d="M 1474.799 624.315 C 1466.611 612.986 1463.542 583.528 1466.611 539.342 C 1469.683 484.958 1476.845 464.565 1498.335 439.639 C 1515.731 420.378 1525.964 395.452 1525.964 373.926 C 1525.964 286.687 1566.896 208.51 1630.341 174.521 C 1789.977 86.148 1835.002 74.818 2023.292 74.818 C 2167.577 74.818 2237.163 87.281 2308.794 124.669 C 2337.446 139.398 2371.217 155.26 2385.542 159.792 C 2447.963 179.053 2518.572 303.681 2518.572 392.054 C 2518.572 411.315 2523.688 426.044 2528.805 426.044 C 2546.201 426.044 2579.971 517.815 2579.971 564.267 C 2579.971 624.315 2559.505 641.311 2483.78 641.311 C 2447.963 641.311 2415.218 635.645 2408.055 627.715 C 2376.333 592.592 2403.962 453.235 2447.963 422.645 C 2483.78 397.719 2468.431 315.011 2417.265 252.697 L 2391.682 220.974 L 2380.426 269.691 L 2370.193 318.41 L 2288.328 316.144 C 2182.927 312.745 1851.376 312.745 1745.975 316.144 L 1664.111 318.41 L 1661.04 284.42 C 1655.923 223.239 1650.807 216.442 1627.272 240.234 C 1568.943 299.149 1560.757 385.256 1607.829 445.304 C 1635.458 479.293 1638.527 491.757 1638.527 555.203 C 1638.527 639.044 1636.481 641.311 1546.43 641.311 C 1506.521 641.311 1482.985 635.645 1474.799 624.315 Z" style="fill: rgb(250, 180, 0);"/>
    <path d="M 2766.213 627.715 C 2750.863 610.719 2749.841 512.15 2765.19 479.293 C 2771.33 465.697 2784.632 444.171 2794.865 431.709 C 2805.099 419.245 2815.332 385.256 2819.424 354.665 C 2822.495 325.207 2832.728 284.42 2841.938 264.026 C 2859.333 225.505 2914.592 166.59 2934.035 165.456 C 2940.175 165.456 2967.805 152.994 2995.434 136 C 3070.135 92.946 3162.233 74.818 3307.543 74.818 C 3457.969 74.818 3540.857 89.547 3600.209 125.802 C 3623.744 140.531 3656.49 155.26 3671.84 159.792 C 3706.632 167.723 3759.844 219.84 3781.335 266.293 C 3790.543 284.42 3797.707 322.942 3797.707 350.133 C 3797.707 385.256 3803.847 405.649 3818.173 420.378 C 3829.429 431.709 3845.802 456.634 3853.989 474.761 C 3872.409 515.549 3874.454 608.454 3857.059 627.715 C 3840.685 645.843 3713.796 645.843 3697.422 627.715 C 3669.793 597.124 3686.166 486.092 3727.099 436.241 C 3743.471 415.847 3756.774 387.522 3756.774 372.793 C 3756.774 330.873 3726.075 258.362 3699.469 239.101 C 3674.909 222.106 3674.909 222.106 3674.909 260.627 C 3674.909 322.942 3659.56 328.607 3533.694 317.277 C 3394.523 304.814 3230.795 304.814 3083.438 317.277 C 2953.478 328.607 2948.362 326.341 2948.362 259.494 C 2948.362 239.101 2945.291 222.106 2941.198 222.106 C 2923.802 222.106 2879.8 294.617 2868.544 343.335 C 2855.241 395.452 2856.263 398.852 2880.823 420.378 C 2934.035 467.964 2958.595 605.055 2918.686 629.98 C 2891.057 645.843 2781.562 644.709 2766.213 627.715 Z" style="fill: rgb(250, 180, 0);"/>
    <path d="M 22.379 1820.153 L 22.379 1746.509 L 844.095 1746.509 C 1295.373 1745.376 2489.574 1744.244 3496.508 1743.111 L 5328.229 1740.844 L 5328.229 1814.489 L 5328.229 1888.133 L 2675.815 1891.531 L 22.379 1893.798 L 22.379 1820.153 Z" style=""/>
    <path d="M 1857.284 1263.918 C 1788.722 1253.722 1731.416 1229.929 1710.95 1203.87 C 1703.788 1193.673 1695.601 1160.816 1691.508 1130.226 C 1684.344 1058.848 1716.066 631.713 1734.487 550.138 C 1749.836 482.159 1787.698 430.042 1839.888 405.116 C 1889.005 382.456 2048.642 373.393 2135.623 390.387 C 2198.044 401.717 2215.44 409.648 2245.116 442.504 C 2264.559 464.031 2287.073 505.951 2296.282 535.409 C 2314.703 599.989 2347.448 1020.327 2341.307 1114.364 C 2336.191 1195.939 2319.819 1219.732 2252.28 1245.79 C 2197.022 1266.184 1953.475 1277.514 1857.284 1263.918 Z" style="fill: rgb(250, 180, 0);"/>
    <path d="M 3152.824 1245.209 C 3084.262 1235.012 3026.957 1211.219 3006.49 1185.161 C 2999.328 1174.964 2991.141 1142.108 2987.047 1111.517 C 2979.884 1040.139 3011.608 613.004 3030.026 531.43 C 3045.376 463.45 3083.238 411.332 3135.428 386.408 C 3184.546 363.747 3344.182 354.683 3431.163 371.679 C 3493.585 383.008 3510.981 390.939 3540.656 423.796 C 3560.1 445.322 3582.612 487.243 3591.822 516.701 C 3610.242 581.28 3642.987 1001.618 3636.848 1095.655 C 3631.731 1177.23 3615.358 1201.022 3547.82 1227.082 C 3492.562 1247.475 3249.015 1258.805 3152.824 1245.209 Z" style="fill: rgb(250, 180, 0);"/>
    <path d="M 3119.399 3141.083 C 3050.839 3130.886 2993.533 3107.093 2973.066 3081.035 C 2965.903 3070.838 2957.717 3037.982 2953.623 3007.39 C 2946.46 2936.013 2978.183 2508.878 2996.601 2427.302 C 3011.951 2359.324 3049.814 2307.206 3102.003 2282.28 C 3151.121 2259.621 3310.757 2250.557 3397.739 2267.552 C 3460.161 2278.882 3477.557 2286.812 3507.233 2319.669 C 3526.676 2341.196 3549.188 2383.117 3558.398 2412.574 C 3576.817 2477.154 3609.563 2897.491 3603.423 2991.529 C 3598.307 3073.104 3581.933 3096.896 3514.396 3122.956 C 3459.137 3143.349 3215.591 3154.679 3119.399 3141.083 Z" style="fill: rgb(250, 180, 0);"/>
    <path d="M 2734.127 2501.529 C 2726.965 2489.067 2720.825 2460.742 2720.825 2439.215 C 2720.825 2393.895 2754.595 2311.188 2777.107 2300.991 C 2786.316 2297.592 2792.457 2279.465 2792.457 2253.405 C 2792.457 2182.027 2811.9 2132.176 2854.878 2089.123 C 2877.391 2065.33 2908.09 2041.538 2923.439 2034.74 C 2938.79 2027.941 2971.536 2012.08 2996.095 2000.75 C 3098.426 1950.899 3286.714 1932.771 3440.21 1958.829 C 3513.888 1971.293 3651.013 2030.208 3704.223 2072.128 C 3737.992 2098.186 3785.065 2202.421 3785.065 2251.14 C 3785.065 2272.666 3797.346 2305.523 3815.764 2333.847 C 3840.323 2371.236 3846.463 2391.63 3846.463 2439.215 C 3846.463 2517.391 3835.207 2526.455 3742.086 2521.923 L 3667.385 2518.524 L 3664.315 2450.545 C 3661.244 2376.901 3672.501 2339.513 3711.388 2302.124 C 3732.876 2281.73 3735.947 2270.401 3729.806 2237.544 C 3722.643 2194.491 3684.781 2126.511 3665.338 2118.58 C 3657.151 2116.315 3652.035 2125.379 3652.035 2141.24 C 3652.035 2155.969 3645.895 2177.495 3637.709 2189.959 C 3623.382 2211.485 3631.568 2211.485 3356.299 2188.825 C 3308.203 2184.294 3207.92 2187.692 3125.031 2195.624 C 2949.023 2213.751 2928.556 2209.22 2919.347 2154.836 C 2916.277 2133.309 2908.09 2117.447 2901.949 2119.714 C 2878.414 2127.644 2851.808 2183.16 2846.692 2231.879 C 2841.575 2277.198 2844.645 2286.262 2873.298 2317.985 C 2905.021 2351.975 2906.043 2356.507 2902.974 2435.816 L 2899.903 2518.524 L 2823.156 2521.923 C 2755.617 2524.189 2745.384 2521.923 2734.127 2501.529 Z" style="fill: rgb(250, 180, 0);"/>
    <path d="M 4403.674 3134.847 C 4335.113 3124.651 4277.808 3100.858 4257.34 3074.799 C 4250.177 3064.602 4241.991 3031.745 4237.898 3001.155 C 4230.734 2929.777 4262.457 2502.642 4280.877 2421.067 C 4296.225 2353.087 4334.088 2300.971 4386.278 2276.045 C 4435.396 2253.385 4595.032 2244.322 4682.014 2261.316 C 4744.435 2272.646 4761.831 2280.577 4791.507 2313.433 C 4810.95 2334.96 4833.464 2376.88 4842.672 2406.338 C 4861.093 2470.918 4893.838 2891.255 4887.698 2985.293 C 4882.582 3066.868 4866.209 3090.661 4798.67 3116.719 C 4743.411 3137.113 4499.865 3148.442 4403.674 3134.847 Z" style="fill: rgb(250, 180, 0);"/>
    <path d="M 4018.402 2495.294 C 4011.24 2482.83 4005.099 2454.505 4005.099 2432.979 C 4005.099 2387.66 4038.869 2304.951 4061.381 2294.755 C 4070.591 2291.356 4076.731 2273.228 4076.731 2247.17 C 4076.731 2175.792 4096.174 2125.941 4139.153 2082.887 C 4161.665 2059.094 4192.364 2035.302 4207.714 2028.503 C 4223.065 2021.706 4255.81 2005.844 4280.369 1994.514 C 4382.701 1944.662 4570.988 1926.535 4724.485 1952.594 C 4798.163 1965.056 4935.287 2023.971 4988.498 2065.892 C 5022.267 2091.951 5069.34 2196.186 5069.34 2244.903 C 5069.34 2266.431 5081.62 2299.287 5100.038 2327.612 C 5124.598 2365.001 5130.737 2385.394 5130.737 2432.979 C 5130.737 2511.155 5119.481 2520.219 5026.362 2515.687 L 4951.659 2512.288 L 4948.589 2444.309 C 4945.52 2370.665 4956.775 2333.276 4995.662 2295.888 C 5017.151 2275.495 5020.221 2264.164 5014.081 2231.308 C 5006.918 2188.254 4969.055 2120.276 4949.612 2112.345 C 4941.425 2110.078 4936.309 2119.142 4936.309 2135.004 C 4936.309 2149.733 4930.169 2171.26 4921.983 2183.722 C 4907.657 2205.25 4915.843 2205.25 4640.575 2182.59 C 4592.478 2178.058 4492.194 2181.457 4409.306 2189.387 C 4233.297 2207.515 4212.831 2202.983 4203.621 2148.6 C 4200.552 2127.073 4192.364 2111.212 4186.225 2113.477 C 4162.688 2121.409 4136.082 2176.925 4130.967 2225.643 C 4125.85 2270.963 4128.92 2280.027 4157.572 2311.75 C 4189.295 2345.74 4190.318 2350.272 4187.248 2429.58 L 4184.177 2512.288 L 4107.431 2515.687 C 4039.892 2517.953 4029.659 2515.687 4018.402 2495.294 Z" style="fill: rgb(250, 180, 0);"/>
    <path d="M 4437.47 1307.554 C 4368.908 1297.357 4311.604 1273.564 4291.136 1247.506 C 4283.974 1237.309 4275.787 1204.453 4271.693 1173.861 C 4264.53 1102.484 4296.253 675.349 4314.672 593.773 C 4330.021 525.795 4367.884 473.677 4420.074 448.751 C 4469.192 426.092 4628.828 417.028 4715.809 434.022 C 4778.231 445.353 4795.627 453.283 4825.303 486.14 C 4844.746 507.667 4867.258 549.588 4876.468 579.044 C 4894.888 643.625 4927.633 1063.963 4921.494 1158 C 4916.377 1239.575 4900.004 1263.367 4832.466 1289.427 C 4777.208 1309.82 4533.661 1321.15 4437.47 1307.554 Z" style="fill: rgb(250, 180, 0);"/>
    <path d="M 4052.198 668 C 4045.036 655.538 4038.895 627.213 4038.895 605.686 C 4038.895 560.366 4072.665 477.659 4095.177 467.462 C 4104.387 464.063 4110.526 445.936 4110.526 419.876 C 4110.526 348.498 4129.969 298.647 4172.948 255.594 C 4195.461 231.801 4226.16 208.008 4241.51 201.211 C 4256.86 194.412 4289.606 178.551 4314.165 167.221 C 4416.497 117.37 4604.784 99.242 4758.28 125.3 C 4831.959 137.763 4969.082 196.679 5022.294 238.599 C 5056.063 264.657 5103.135 368.892 5103.135 417.611 C 5103.135 439.137 5115.415 471.994 5133.834 500.318 C 5158.394 537.707 5164.533 558.101 5164.533 605.686 C 5164.533 683.862 5153.277 692.926 5060.157 688.394 L 4985.455 684.994 L 4982.385 617.016 C 4979.316 543.372 4990.571 505.984 5029.457 468.595 C 5050.946 448.201 5054.017 436.871 5047.876 404.014 C 5040.714 360.962 5002.851 292.982 4983.408 285.051 C 4975.221 282.785 4970.105 291.849 4970.105 307.711 C 4970.105 322.44 4963.965 343.966 4955.779 356.43 C 4941.453 377.956 4949.638 377.956 4674.369 355.296 C 4626.273 350.765 4525.99 354.163 4443.102 362.094 C 4267.093 380.222 4246.628 375.691 4237.417 321.307 C 4234.348 299.78 4226.16 283.918 4220.021 286.185 C 4196.484 294.115 4169.878 349.631 4164.762 398.35 C 4159.645 443.669 4162.716 452.733 4191.368 484.456 C 4223.091 518.446 4224.113 522.978 4221.044 602.287 L 4217.974 684.994 L 4141.227 688.394 C 4073.688 690.66 4063.455 688.394 4052.198 668 Z" style="fill: rgb(250, 180, 0);"/>
    <path d="M 556.484 1263.898 C 487.923 1253.701 430.617 1229.908 410.152 1203.85 C 402.988 1193.653 394.802 1160.796 390.708 1130.206 C 383.545 1058.828 415.268 631.692 433.688 550.118 C 449.037 482.138 486.899 430.021 539.087 405.096 C 588.207 382.435 747.843 373.372 834.824 390.367 C 897.246 401.696 914.643 409.628 944.318 442.484 C 963.76 464.011 986.273 505.931 995.484 535.389 C 1013.902 599.969 1046.649 1020.306 1040.509 1114.344 C 1035.393 1195.919 1019.02 1219.711 951.481 1245.77 C 896.223 1266.164 652.675 1277.493 556.484 1263.898 Z" style="fill: rgb(250, 180, 0);"/>
    <path d="M 171.213 624.344 C 164.05 611.881 157.91 583.556 157.91 562.03 C 157.91 516.71 191.68 434.002 214.192 423.805 C 223.402 420.407 229.542 402.279 229.542 376.22 C 229.542 304.843 248.984 254.991 291.963 211.938 C 314.477 188.145 345.176 164.353 360.525 157.554 C 375.875 150.757 408.62 134.895 433.18 123.564 C 535.509 73.713 723.799 55.586 877.295 81.644 C 950.973 94.108 1088.096 153.022 1141.309 194.943 C 1175.079 221.002 1222.15 325.236 1222.15 373.954 C 1222.15 395.481 1234.429 428.337 1252.849 456.662 C 1277.408 494.05 1283.549 514.445 1283.549 562.03 C 1283.549 640.206 1272.292 649.27 1179.17 644.738 L 1104.47 641.339 L 1101.4 573.359 C 1098.329 499.716 1109.586 462.327 1148.471 424.939 C 1169.961 404.545 1173.032 393.215 1166.891 360.359 C 1159.727 317.305 1121.866 249.327 1102.423 241.395 C 1094.237 239.13 1089.121 248.193 1089.121 264.054 C 1089.121 278.783 1082.98 300.311 1074.794 312.773 C 1060.467 334.3 1068.653 334.3 793.383 311.64 C 745.289 307.108 645.004 310.507 562.117 318.438 C 386.108 336.566 365.641 332.034 356.432 277.65 C 353.362 256.124 345.176 240.262 339.036 242.528 C 315.5 250.459 288.893 305.975 283.776 354.694 C 278.66 400.013 281.73 409.076 310.384 440.801 C 342.106 474.79 343.129 479.322 340.059 558.63 L 336.989 641.339 L 260.241 644.738 C 192.702 647.004 182.469 644.738 171.213 624.344 Z" style="fill: rgb(250, 180, 0);"/>
    <path d="M 545.219 3122.374 C 476.657 3112.177 419.352 3088.385 398.886 3062.326 C 391.722 3052.129 383.536 3019.272 379.443 2988.682 C 372.278 2917.304 404.002 2490.168 422.423 2408.594 C 437.772 2340.614 475.634 2288.498 527.823 2263.572 C 576.942 2240.912 736.578 2231.849 823.559 2248.843 C 885.98 2260.173 903.376 2268.104 933.053 2300.96 C 952.495 2322.487 975.009 2364.407 984.218 2393.865 C 1002.637 2458.445 1035.384 2878.782 1029.244 2972.82 C 1024.127 3054.395 1007.755 3078.188 940.214 3104.246 C 884.957 3124.64 641.409 3135.969 545.219 3122.374 Z" style="fill: rgb(250, 180, 0);"/>
    <path d="M 159.948 2482.821 C 152.784 2470.357 146.644 2442.032 146.644 2420.506 C 146.644 2375.187 180.413 2292.478 202.926 2282.282 C 212.137 2278.883 218.276 2260.755 218.276 2234.697 C 218.276 2163.319 237.718 2113.468 280.698 2070.414 C 303.21 2046.621 333.909 2022.829 349.26 2016.03 C 364.609 2009.233 397.354 1993.371 421.914 1982.041 C 524.245 1932.189 712.533 1914.062 866.03 1940.121 C 939.708 1952.583 1076.832 2011.498 1130.044 2053.419 C 1163.812 2079.478 1210.885 2183.713 1210.885 2232.43 C 1210.885 2253.958 1223.164 2286.814 1241.582 2315.138 C 1266.143 2352.526 1272.283 2372.921 1272.283 2420.506 C 1272.283 2498.682 1261.026 2507.746 1167.906 2503.214 L 1093.203 2499.815 L 1090.135 2431.836 C 1087.065 2358.192 1098.32 2320.803 1137.206 2283.415 C 1158.696 2263.022 1161.765 2251.691 1155.626 2218.835 C 1148.462 2175.781 1110.6 2107.803 1091.157 2099.872 C 1082.971 2097.606 1077.854 2106.669 1077.854 2122.532 C 1077.854 2137.26 1071.714 2158.787 1063.528 2171.249 C 1049.202 2192.777 1057.389 2192.777 782.119 2170.116 C 734.024 2165.584 633.738 2168.984 550.851 2176.914 C 374.842 2195.042 354.376 2190.51 345.167 2136.127 C 342.096 2114.6 333.909 2098.739 327.771 2101.004 C 304.234 2108.936 277.628 2164.452 272.511 2213.17 C 267.395 2258.49 270.465 2267.554 299.117 2299.277 C 330.839 2333.267 331.864 2337.799 328.792 2417.107 L 325.724 2499.815 L 248.975 2503.214 C 181.437 2505.48 171.204 2503.214 159.948 2482.821 Z" style="fill: rgb(250, 180, 0);"/>
    <path d="M 4454.368 4868.593 C 4385.806 4858.396 4328.502 4834.603 4308.036 4808.545 C 4300.873 4798.348 4292.685 4765.491 4288.592 4734.901 C 4281.429 4663.523 4313.153 4236.387 4331.571 4154.813 C 4346.92 4086.834 4384.783 4034.716 4436.972 4009.791 C 4486.091 3987.132 4645.727 3978.068 4732.708 3995.062 C 4795.131 4006.392 4812.527 4014.323 4842.203 4047.18 C 4861.645 4068.706 4884.157 4110.626 4893.368 4140.084 C 4911.787 4204.664 4944.532 4625.001 4938.393 4719.039 C 4933.277 4800.614 4916.903 4824.407 4849.365 4850.465 C 4794.106 4870.859 4550.559 4882.189 4454.368 4868.593 Z" style="fill: rgb(250, 180, 0);"/>
    <path d="M 4069.097 4229.04 C 4061.934 4216.576 4055.794 4188.252 4055.794 4166.725 C 4055.794 4121.406 4089.563 4038.698 4112.076 4028.501 C 4121.286 4025.102 4127.426 4006.974 4127.426 3980.916 C 4127.426 3909.538 4146.868 3859.686 4189.847 3816.633 C 4212.36 3792.841 4243.06 3769.048 4258.409 3762.249 C 4273.758 3755.452 4306.506 3739.59 4331.064 3728.261 C 4433.395 3678.409 4621.684 3660.281 4775.179 3686.34 C 4848.858 3698.803 4985.981 3757.717 5039.193 3799.638 C 5072.962 3825.697 5120.034 3929.931 5120.034 3978.65 C 5120.034 4000.176 5132.314 4033.033 5150.733 4061.357 C 5175.293 4098.746 5181.432 4119.14 5181.432 4166.725 C 5181.432 4244.901 5170.177 4253.965 5077.055 4249.433 L 5002.354 4246.034 L 4999.284 4178.055 C 4996.214 4104.411 5007.47 4067.022 5046.356 4029.634 C 5067.845 4009.241 5070.915 3997.911 5064.775 3965.054 C 5057.613 3922 5019.75 3854.022 5000.308 3846.09 C 4992.12 3843.825 4987.004 3852.889 4987.004 3868.751 C 4987.004 3883.479 4980.865 3905.006 4972.677 3917.468 C 4958.353 3938.996 4966.537 3938.996 4691.267 3916.335 C 4643.172 3911.803 4542.888 3915.203 4460.001 3923.134 C 4283.991 3941.261 4263.526 3936.729 4254.316 3882.346 C 4251.246 3860.819 4243.06 3844.958 4236.919 3847.223 C 4213.384 3855.154 4186.777 3910.671 4181.661 3959.389 C 4176.544 4004.708 4179.615 4013.773 4208.268 4045.496 C 4239.99 4079.485 4241.013 4084.018 4237.943 4163.327 L 4234.872 4246.034 L 4158.125 4249.433 C 4090.586 4251.699 4080.355 4249.433 4069.097 4229.04 Z" style="fill: rgb(250, 180, 0);"/>
    <path d="M 483.258 4881.066 C 414.697 4870.869 357.391 4847.076 336.924 4821.018 C 329.76 4810.821 321.575 4777.964 317.482 4747.374 C 310.318 4675.996 342.04 4248.86 360.461 4167.286 C 375.81 4099.307 413.672 4047.189 465.862 4022.264 C 514.98 3999.605 674.617 3990.541 761.597 4007.535 C 824.018 4018.865 841.415 4026.796 871.091 4059.653 C 890.534 4081.179 913.047 4123.099 922.256 4152.557 C 940.676 4217.137 973.421 4637.474 967.283 4731.512 C 962.165 4813.087 945.793 4836.88 878.254 4862.938 C 822.995 4883.332 579.448 4894.662 483.258 4881.066 Z" style="fill: rgb(250, 180, 0);"/>
    <path d="M 97.987 4241.513 C 90.824 4229.049 84.683 4200.725 84.683 4179.198 C 84.683 4133.879 118.453 4051.171 140.966 4040.974 C 150.175 4037.575 156.315 4019.447 156.315 3993.389 C 156.315 3922.011 175.758 3872.16 218.737 3829.106 C 241.249 3805.313 271.948 3781.521 287.299 3774.722 C 302.649 3767.925 335.394 3752.063 359.953 3740.734 C 462.284 3690.882 650.572 3672.754 804.069 3698.813 C 877.747 3711.276 1014.869 3770.19 1068.081 3812.111 C 1101.851 3838.17 1148.923 3942.405 1148.923 3991.123 C 1148.923 4012.649 1161.203 4045.506 1179.622 4073.83 C 1204.181 4111.219 1210.321 4131.613 1210.321 4179.198 C 1210.321 4257.374 1199.064 4266.438 1105.944 4261.906 L 1031.243 4258.507 L 1028.173 4190.528 C 1025.103 4116.884 1036.36 4079.495 1075.245 4042.107 C 1096.735 4021.714 1099.805 4010.384 1093.664 3977.527 C 1086.502 3934.473 1048.639 3866.495 1029.196 3858.563 C 1021.01 3856.298 1015.893 3865.361 1015.893 3881.224 C 1015.893 3895.952 1009.752 3917.479 1001.567 3929.941 C 987.24 3951.469 995.428 3951.469 720.158 3928.808 C 672.061 3924.276 571.778 3927.676 488.89 3935.607 C 312.881 3953.734 292.415 3949.202 283.205 3894.819 C 280.136 3873.292 271.948 3857.431 265.809 3859.696 C 242.273 3867.627 215.666 3923.144 210.55 3971.862 C 205.434 4017.182 208.504 4026.246 237.156 4057.969 C 268.878 4091.959 269.902 4096.491 266.832 4175.8 L 263.762 4258.507 L 187.014 4261.906 C 119.476 4264.172 109.242 4261.906 97.987 4241.513 Z" style="fill: rgb(250, 180, 0);"/>
  </g>
</svg>